<?xml version="1.0" encoding="utf-8"?>
<!-- Generator: Adobe Illustrator 27.8.1, SVG Export Plug-In . SVG Version: 6.00 Build 0)  -->
<svg version="1.1" xmlns="http://www.w3.org/2000/svg" xmlns:xlink="http://www.w3.org/1999/xlink" x="0px" y="0px"
	 viewBox="0 0 895 352" style="enable-background:new 0 0 895 352;" xml:space="preserve">
<style type="text/css">
	.st0{display:none;}
	.st1{fill:none;stroke:#000000;stroke-width:4;stroke-linecap:round;stroke-linejoin:round;}
	.st2{fill:none;stroke:#E40000;stroke-width:4;stroke-linecap:round;stroke-linejoin:round;}
	.st3{fill:#E40000;stroke:#FF0000;stroke-width:2;stroke-miterlimit:10;}
	.st4{display:inline;}
	.st5{font-family:'KlintPro-Regular';}
	.st6{font-size:64px;}
	.st7{font-size:43px;}
</style>
<g id="Original_Layout" class="st0">
	<image style="display:inline;overflow:visible;" width="895" height="352" xlink:href="Dancert-stamp-de.png" >
	</image>
</g>
<g id="Ikon">
	<g>
		<line class="st1" x1="408.4" y1="44.1" x2="458.4" y2="44.1"/>
		<line class="st1" x1="408.4" y1="71.3" x2="445" y2="71.3"/>
		<line class="st1" x1="408.4" y1="98.5" x2="432" y2="98.5"/>
		<path class="st1" d="M414.9,125.7h-15.6c-5,0-9.1-4.1-9.1-9.1V16.9c0-5,4.1-9.1,9.1-9.1h64.3c2.4,0,4.7,1,6.4,2.7l17.4,17.4
			c1.7,1.7,2.7,4,2.7,6.4v18.9"/>
		<g>
			<path class="st2" d="M478.9,103.4V88.8c2.6-2.3,4.3-5.7,4.3-9.5c0-6.9-5.6-12.5-12.5-12.5s-12.5,5.6-12.5,12.5
				c0,3.8,1.7,7.2,4.3,9.5v14.6h-17.3l-5.3,22.3h61.6l-5.3-22.3H478.9z"/>
		</g>
	</g>
	<line class="st3" x1="302.9" y1="290.7" x2="586.3" y2="290.7"/>
</g>
<g id="Master" class="st0">
	<text transform="matrix(1 0 0 1 -5.2484 203.1413)" class="st4 st5 st6">DIGITAL SIGNIERTES DOKUMENT</text>
	<text transform="matrix(1 0 0 1 360.276 341.2871)" class="st4 st5 st7">DANCERT</text>
</g>
<g id="DE" class="st0">
	<text transform="matrix(1 0 0 1 -5.2484 203.1413)" class="st4 st5 st6">DIGITAL SIGNIERTES DOKUMENT</text>
	<text transform="matrix(1 0 0 1 360.276 341.2871)" class="st4 st5 st7">DANCERT</text>
</g>
<g id="dk">
	<g>
		<path d="M15.1,159.6c0,0,6-0.6,13-0.6C43,159,44,164,44,181.4c0,17.3-1,22.3-15.9,22.3c-6.5,0-13-0.6-13-0.6V159.6z M28.4,200
			c10.4,0,10.9-3.4,10.9-18.6c0-15.2-0.5-18.7-10.9-18.7c-3.6,0-8.5,0.3-8.5,0.3v36.5C21.9,199.8,24.9,200,28.4,200z"/>
		<path d="M54.8,159.6h4.8v43.5h-4.8V159.6z"/>
		<path d="M70.6,181.4c0-18.5,2.6-22.5,16.9-22.5c5.5,0,10.2,1.2,10.2,1.2l-0.4,3.5c-0.3,0-4.7-1-8.8-1c-11.6,0-13.2,2.5-13.2,18.7
			c0,15.7,0.8,18.6,11.6,18.6c2.6,0,5.4-0.4,7-0.7v-14.1H86v-3.5h12.2v20.5c0,0-5.4,1.5-11.6,1.5C72.1,203.8,70.6,199.9,70.6,181.4z
			"/>
		<path d="M109.8,159.6h4.8v43.5h-4.8V159.6z"/>
		<path d="M135,163.3h-11.7v-3.7h28.2v3.7h-11.7v39.8H135V163.3z"/>
		<path d="M166.9,159.6h6.2l13.7,43.5H182l-4-12.5h-16.1l-4,12.5h-4.7L166.9,159.6z M177.2,187.1l-4.7-15.4
			c-1.8-6.1-2.4-9.3-2.4-9.3h-0.2c0,0-0.6,3.3-2.5,9.3l-4.7,15.4H177.2z"/>
		<path d="M195,159.6h4.8v39.8h17.3v3.7H195V159.6z"/>
		<path d="M228.8,163.3h-11.7v-3.7h28.2v3.7h-11.7v39.8h-4.7V163.3z"/>
		<path d="M270.9,199.3c0,0,4.4,0.6,10.2,0.6c9.3,0,11.3-1.3,11.3-7.6c0-4.7-0.2-6.2-4.8-7.6l-9.8-3.1c-6.7-2.2-7.9-4.4-7.9-11.3
			c0-8.6,3.6-11.3,14.8-11.3c5.2,0,10.1,0.8,10.1,0.8l-0.3,3.7c0,0-4.5-0.7-9.3-0.7c-8.8,0-10.8,1.2-10.8,7.4c0,4.8,0.4,6.1,4.8,7.4
			l10,3.1c6.8,2.2,7.7,4.9,7.7,11.6c0,8.8-3.5,11.5-15.2,11.5c-6.3,0-11.2-0.8-11.2-0.8L270.9,199.3z"/>
		<path d="M307.5,159.6h4.8v43.5h-4.8V159.6z"/>
		<path d="M323.2,181.4c0-18.5,2.6-22.5,16.9-22.5c5.5,0,10.2,1.2,10.2,1.2l-0.4,3.5c-0.3,0-4.7-1-8.8-1c-11.6,0-13.2,2.5-13.2,18.7
			c0,15.7,0.8,18.6,11.6,18.6c2.6,0,5.4-0.4,7-0.7v-14.1h-7.9v-3.5h12.2v20.5c0,0-5.4,1.5-11.6,1.5
			C324.8,203.8,323.2,199.9,323.2,181.4z"/>
		<path d="M361.9,159.6h5.6l15.7,28c3.4,6.1,5.1,10.2,5.8,12.2h0.3c-0.3-2.3-1-5.8-1-13.2l-0.1-27h4.6v43.5h-5.4l-15.7-27.5
			c-4.1-7.2-5.4-10.9-6-12.6h-0.3c0.2,1.2,1,5.8,1,13.5l0.1,26.6h-4.7V159.6z"/>
		<path d="M404.4,159.6h23.9v3.7h-19.1v14.8h17.4v3.7h-17.4v17.5h19.1v3.7h-23.9V159.6z"/>
		<path d="M438.2,159.6c0,0,5.6-0.6,12.1-0.6c14,0,16.3,2.4,16.3,13.1c0,7.8-1.9,11.3-9.6,12.2l6.8,13.6c0.8,1.5,1.7,1.7,3.3,1.7
			c0.8,0,1.5-0.1,1.6-0.1v3.6c0,0-1.2,0.6-3.6,0.6c-2.4,0-4.4-1.3-5.6-3.9l-7.2-14.8H443v18.1h-4.8V159.6z M450.5,181.4
			c9.7,0,11.5-1.5,11.5-9.3c0-7.9-1.7-9.3-11.5-9.3c-2.9,0-5.6,0.1-7.5,0.2v18.5H450.5z"/>
		<path d="M477.5,159.6h23.9v3.7h-19.1v14.8h17.4v3.7h-17.4v17.5h19.1v3.7h-23.9V159.6z"/>
		<path d="M519.6,163.3h-11.7v-3.7H536v3.7h-11.7v39.8h-4.7V163.3z"/>
		<path d="M563.1,159.6c0,0,6-0.6,13-0.6c14.8,0,15.9,5.1,15.9,22.5c0,17.3-1,22.3-15.9,22.3c-6.5,0-13-0.6-13-0.6V159.6z
			 M576.3,200c10.4,0,10.9-3.4,10.9-18.6c0-15.2-0.5-18.7-10.9-18.7c-3.6,0-8.5,0.3-8.5,0.3v36.5C569.9,199.8,572.9,200,576.3,200z"
			/>
		<path d="M601.2,181.4c0-18.4,2-22.5,15.5-22.5c13.6,0,15.6,4.1,15.6,22.5c0,18.2-2,22.3-15.6,22.3
			C603.2,203.8,601.2,199.7,601.2,181.4z M627.5,181.4c0-15.8-0.8-18.7-10.9-18.7s-10.8,2.9-10.8,18.7c0,15.7,0.7,18.6,10.8,18.6
			S627.5,197.1,627.5,181.4z"/>
		<path d="M642.6,159.6h4.8v19.3h7l12.4-19.3h5.4l-13.6,21.1l9.7,17.2c0.9,1.7,2.4,1.8,3.5,1.8c0.8,0,1.6-0.1,1.6-0.1l0.1,3.6
			c0,0-1.4,0.6-3.6,0.6c-2.9,0-4.7-1.5-6.1-4.2l-9.3-17h-7v20.5h-4.8V159.6z"/>
		<path d="M681.4,181.4v-21.8h4.7v21.8c0,14.6,0.8,18.6,10.3,18.6c9.6,0,10.3-4,10.3-18.6v-21.8h4.7v21.8c0,17.3-1.6,22.3-15,22.3
			C683.1,203.8,681.4,198.7,681.4,181.4z"/>
		<path d="M725.9,159.6h6.2l8.6,28c2.4,7.6,3.1,12.6,3.1,12.6h0.3c0,0,0.6-5.1,2.9-12.6l8.8-28h6.2l4.7,43.5h-4.7l-2.8-28.7
			c-0.6-7.1-0.6-11.6-0.6-11.6h-0.3c0,0-1,5.1-2.9,11.6l-8.8,28.6h-5.4l-8.8-28.6c-2-6.7-3-11.6-3-11.6h-0.3c0,0,0.1,4.5-0.6,11.6
			l-2.6,28.6h-4.7L725.9,159.6z"/>
		<path d="M777.1,159.6H801v3.7h-19.1v14.8h17.4v3.7h-17.4v17.5H801v3.7h-23.9V159.6z"/>
		<path d="M810.8,159.6h5.6l15.7,28c3.4,6.1,5.1,10.2,5.8,12.2h0.3c-0.3-2.3-1-5.8-1-13.2l-0.1-27h4.6v43.5h-5.4l-15.7-27.5
			c-4.1-7.2-5.4-10.9-6-12.6h-0.3c0.2,1.2,1,5.8,1,13.5l0.1,26.6h-4.7V159.6z"/>
		<path d="M861.7,163.3H850v-3.7h28.2v3.7h-11.7v39.8h-4.7V163.3z"/>
	</g>
	<g>
		<path d="M365.4,312c0,0,4-0.4,8.7-0.4c10,0,10.7,3.4,10.7,15.1c0,11.6-0.7,15-10.7,15c-4.3,0-8.7-0.4-8.7-0.4V312z M374.3,339.2
			c7,0,7.3-2.3,7.3-12.5c0-10.2-0.3-12.6-7.3-12.6c-2.4,0-5.7,0.2-5.7,0.2v24.6C370,339.1,372,339.2,374.3,339.2z"/>
		<path d="M397.9,312h4.2l9.2,29.2H408l-2.7-8.4h-10.8l-2.7,8.4h-3.2L397.9,312z M404.8,330.5l-3.1-10.3c-1.2-4.1-1.6-6.2-1.6-6.2
			h-0.1c0,0-0.4,2.2-1.7,6.2l-3.1,10.3H404.8z"/>
		<path d="M416.7,312h3.7l10.6,18.8c2.3,4.1,3.4,6.9,3.9,8.2h0.2c-0.2-1.5-0.6-3.9-0.7-8.9l0-18.1h3.1v29.2h-3.7l-10.6-18.4
			c-2.8-4.8-3.7-7.4-4-8.5h-0.2c0.1,0.8,0.7,3.9,0.7,9.1l0.1,17.8h-3.1V312z"/>
		<path d="M444.6,326.7c0-12.4,1.2-15.1,10.3-15.1c3.5,0,6.5,0.6,6.5,0.6l-0.1,2.4c-0.2,0-2.9-0.4-5.5-0.4c-7.5,0-8,1.5-8,12.6
			c0,11,0.6,12.5,8,12.5c2.6,0,5.3-0.4,5.5-0.4c0,0.8,0.1,1.6,0.1,2.4c0,0-3.1,0.6-6.5,0.6C445.8,341.7,444.6,339.1,444.6,326.7z"/>
		<path d="M467.3,312h16v2.5h-12.8v10h11.7v2.5h-11.7v11.8h12.8v2.5h-16V312z"/>
		<path d="M490,312c0,0,3.8-0.4,8.1-0.4c9.4,0,11,1.6,11,8.8c0,5.2-1.2,7.6-6.4,8.2l4.6,9.2c0.5,1,1.2,1.1,2.2,1.1c0.6,0,1,0,1.1,0
			v2.4c0,0-0.8,0.4-2.4,0.4c-1.6,0-2.9-0.9-3.7-2.6l-4.9-10h-6.3v12.2H490V312z M498.3,326.7c6.5,0,7.7-1,7.7-6.3
			c0-5.3-1.1-6.3-7.7-6.3c-1.9,0-3.8,0-5,0.1v12.4H498.3z"/>
		<path d="M521.2,314.5h-7.9V312h18.9v2.5h-7.9v26.7h-3.2V314.5z"/>
	</g>
</g>
<g id="uk" class="st0">
	<text transform="matrix(1 0 0 1 24.1593 203.1413)" class="st4 st5 st6">DIGITALLY SIGNED DOCUMENT</text>
	<text transform="matrix(1 0 0 1 360.276 341.2871)" class="st4 st5 st7">DANCERT</text>
</g>
</svg>
